<svg xmlns="http://www.w3.org/2000/svg" xmlns:xlink="http://www.w3.org/1999/xlink" version="1.1" x="0px" y="0px" viewBox="0 0 100 125" style="enable-background:new 0 0 100 100;" xml:space="preserve"><path d="M70.9,28.5l-0.1-1.9c0-0.4,0.2-0.8,0.6-1l1.9-0.8c-0.2-0.9-0.4-1.8-0.8-2.6l-2.3,0.1c-0.3,0-0.7-0.2-0.9-0.5l-1-1.6  c-0.2-0.4-0.2-0.8,0-1.2l1.2-1.6c-0.7-0.7-1.4-1.4-2.2-1.9l-1.6,1.3c-0.3,0.2-0.6,0.3-1,0.2l-1.8-0.6c-0.4-0.1-0.7-0.5-0.7-0.9  l0-2.1c-0.9-0.2-1.9-0.4-2.8-0.4l-0.8,2.2c-0.1,0.4-0.5,0.7-0.9,0.7h-1.9c-0.3,0-0.7-0.2-0.9-0.5l-1-1.6c-0.9,0.3-1.7,0.7-2.5,1.1  l0.4,2.4c0.1,0.3-0.1,0.7-0.3,0.9l-1.4,1.2c-0.3,0.3-0.8,0.3-1.2,0.1l-1.7-1c-0.6,0.7-1.1,1.5-1.6,2.4l1.5,1.4  c0.3,0.2,0.4,0.6,0.3,0.9l-0.4,1.8c-0.1,0.4-0.4,0.7-0.8,0.8l-2.2,0.3c-0.1,0.6-0.1,1.1-0.1,1.6c0,0.4,0,0.8,0.1,1.3l2,0.4  c0.3,0.1,0.6,0.3,0.8,0.6l0.7,1.7c0.2,0.4,0,0.8-0.3,1.1l-1.7,1.5c0.4,0.8,0.9,1.6,1.4,2.3l2.1-0.9c0.3-0.1,0.7-0.1,1,0.1l1.5,1.1  c0.3,0.2,0.5,0.7,0.4,1.1l-0.7,2.3c0.8,0.5,1.7,0.9,2.6,1.2l1.1-1.8c0.2-0.3,0.5-0.5,0.9-0.5c0,0,0,0,0,0l1.9,0  c0.4,0,0.8,0.3,0.9,0.7l0.9,2.4c0.9,0,1.8-0.2,2.6-0.4l0.2-2.3c0-0.3,0.2-0.7,0.5-0.8l1.7-0.9c0.4-0.2,0.8-0.1,1.1,0.2l1.6,1.5  c0.8-0.6,1.5-1.2,2.2-1.9l-1.2-1.8c-0.2-0.3-0.2-0.7-0.1-1l0.8-1.7c0.2-0.4,0.6-0.6,1-0.6l2.5,0.2c0.3-0.8,0.5-1.7,0.7-2.6l-2-1.1  C71.1,29.2,70.9,28.8,70.9,28.5z M58.7,35.1c-4.1,0-7.5-3.4-7.5-7.5s3.4-7.5,7.5-7.5c4.1,0,7.5,3.4,7.5,7.5S62.8,35.1,58.7,35.1z"/><path d="M58.7,22.1c-3,0-5.5,2.5-5.5,5.5c0,3,2.5,5.5,5.5,5.5c3,0,5.5-2.5,5.5-5.5C64.2,24.6,61.7,22.1,58.7,22.1z"/><path d="M85.4,31.2c0,0-1.2-30.5-31.9-30.5c-36,0-41.1,63.2-41.1,63.2h9.4v14.6c0,0-0.6,4.7,3.7,4.7c0.5,0,6.5,0,14.5,0.1  c1.1,3.3-0.2,8.5,0.6,15.9c0,0,31.9,0,40.1,0C87.6,61,85.4,31.2,85.4,31.2z M30.5,47.3c-2,0-3.7-1.7-3.7-3.7s1.7-3.7,3.7-3.7  c2,0,3.7,1.7,3.7,3.7S32.5,47.3,30.5,47.3z M74.3,34.5c-0.2,0.4-0.6,0.6-1,0.6l-2.6-0.2l-0.2,0.5l1.3,2c0.2,0.4,0.2,0.9-0.1,1.2  c-1.1,1.3-2.4,2.4-3.8,3.3c-0.4,0.2-0.9,0.2-1.2-0.1L65,40.2l-0.5,0.3L64.2,43c0,0.4-0.3,0.8-0.7,0.9c-1.5,0.4-3,0.7-4.6,0.7  c0,0,0,0,0,0c-0.4,0-0.8-0.3-0.9-0.7l-0.9-2.5l-0.6,0l-1.2,2c-0.2,0.4-0.7,0.6-1.1,0.4c-1.6-0.5-3.1-1.2-4.5-2.1  c-0.4-0.2-0.5-0.7-0.4-1.1l0.7-2.4l-0.5-0.4l-2.2,0.9c-0.4,0.2-0.9,0.1-1.2-0.3c-1-1.2-1.9-2.6-2.5-4c-0.2-0.4-0.1-0.9,0.3-1.2  l1.7-1.5l-0.2-0.6L43,30.9c-0.4-0.1-0.8-0.4-0.8-0.9c-0.1-0.9-0.2-1.6-0.2-2.3c0-0.8,0.1-1.7,0.2-2.6c0.1-0.4,0.4-0.8,0.8-0.8  l2.2-0.3l0.1-0.6l-1.6-1.5c-0.3-0.3-0.4-0.8-0.2-1.2c0.7-1.5,1.6-2.9,2.7-4.1c0.3-0.4,0.8-0.4,1.2-0.2l1.8,1l0.5-0.4l-0.4-2.5  c-0.1-0.4,0.1-0.8,0.5-1c1.4-0.8,2.8-1.5,4.3-1.9c0.4-0.1,0.9,0.1,1.1,0.4l1.1,1.8h0.6l0.8-2.2c0.1-0.4,0.5-0.7,0.9-0.7  c1.6,0,3.2,0.2,4.8,0.7c0.4,0.1,0.7,0.5,0.7,1l0,2.2L65,15l1.7-1.4c0.3-0.3,0.8-0.3,1.2-0.1c1.4,0.9,2.7,2,3.8,3.3  c0.3,0.4,0.3,0.9,0,1.3l-1.2,1.7l0.3,0.5l2.4-0.1c0.4,0,0.8,0.2,0.9,0.6c0.7,1.4,1.1,3,1.3,4.6c0.1,0.5-0.2,0.9-0.6,1.1l-2,0.8  l0,0.6l2.1,1.2c0.4,0.2,0.6,0.6,0.5,1C75.3,31.6,74.9,33.1,74.3,34.5z"/><text x="0" y="115" fill="#000000" font-size="5px" font-weight="bold" font-family="'Helvetica Neue', Helvetica, Arial-Unicode, Arial, Sans-serif">Created by Gem Designs</text><text x="0" y="120" fill="#000000" font-size="5px" font-weight="bold" font-family="'Helvetica Neue', Helvetica, Arial-Unicode, Arial, Sans-serif">from the Noun Project</text></svg>