<svg xmlns="http://www.w3.org/2000/svg" data-name="Layer 1" viewBox="0 0 93 116.25" x="0px" y="0px"><defs><style>.cls-1{fill-rule:evenodd;}</style></defs><title>a</title><path class="cls-1" d="M7.871,67.155a.984.984,0,0,1-.826-.965V17.6a.978.978,0,0,1,.976-.977h76.96a.974.974,0,0,1,.973.977V66.19a.984.984,0,0,1-.867.971l-.036,0H57.018A1.5,1.5,0,0,0,55.591,68.2l-.761,2.346H38.174L37.411,68.2a1.5,1.5,0,0,0-1.427-1.037H7.928l-.057-.011Zm83.629,6.2V70.167H58.108l-.762,2.346a1.5,1.5,0,0,1-1.427,1.037H37.082a1.5,1.5,0,0,1-1.424-1.037L34.9,70.167H1.5v3.187a3.028,3.028,0,0,0,3.025,3.025h83.95A3.026,3.026,0,0,0,91.5,73.354ZM38.851,20.324a1.5,1.5,0,0,0,1.5,1.5h7.687a1.5,1.5,0,1,0,0-3H40.351a1.5,1.5,0,0,0-1.5,1.5Zm12.075,0a1.5,1.5,0,1,0,0-.009Z"/><text x="0" y="108" fill="#000000" font-size="5px" font-weight="bold" font-family="'Helvetica Neue', Helvetica, Arial-Unicode, Arial, Sans-serif">Created by iconmas</text><text x="0" y="113" fill="#000000" font-size="5px" font-weight="bold" font-family="'Helvetica Neue', Helvetica, Arial-Unicode, Arial, Sans-serif">from the Noun Project</text></svg>